{
    "asset" : {
        "generator" : "Khronos glTF Blender I/O v0.9.36",
        "version" : "2.0"
    },
    "scene" : 0,
    "scenes" : [
        {
            "name" : "Scene",
            "nodes" : [
                2
            ]
        }
    ],
    "nodes" : [
        {
            "mesh" : 0,
            "name" : "character_jackHat",
            "translation" : [
                0,
                0.7037110328674316,
                0
            ]
        },
        {
            "mesh" : 1,
            "name" : "character_jackHead",
            "translation" : [
                0,
                0.7037110328674316,
                0
            ]
        },
        {
            "children" : [
                0,
                1
            ],
            "mesh" : 2,
            "name" : "character_jack"
        }
    ],
    "materials" : [
        {
            "name" : "Orange",
            "pbrMetallicRoughness" : {
                "baseColorFactor" : [
                    1,
                    0.16606298089027405,
                    0.017658168449997902,
                    1
                ],
                "metallicFactor" : 0,
                "roughnessFactor" : 0.20000000298023224
            }
        },
        {
            "name" : "BrownDark",
            "pbrMetallicRoughness" : {
                "baseColorFactor" : [
                    0.32694560289382935,
                    0.10152623057365417,
                    0.05927089974284172,
                    1
                ],
                "metallicFactor" : 0,
                "roughnessFactor" : 0.4000000059604645
            }
        },
        {
            "name" : "Black",
            "pbrMetallicRoughness" : {
                "baseColorFactor" : [
                    0.019794002175331116,
                    0.03207586705684662,
                    0.037408243864774704,
                    1
                ],
                "metallicFactor" : 0,
                "roughnessFactor" : 0.20000000298023224
            }
        }
    ],
    "meshes" : [
        {
            "name" : "Sphere.001",
            "primitives" : [
                {
                    "attributes" : {
                        "POSITION" : 0,
                        "NORMAL" : 1,
                        "TEXCOORD_0" : 2
                    },
                    "indices" : 3,
                    "material" : 0
                },
                {
                    "attributes" : {
                        "POSITION" : 4,
                        "NORMAL" : 5,
                        "TEXCOORD_0" : 6
                    },
                    "indices" : 7,
                    "material" : 1
                }
            ]
        },
        {
            "name" : "Cube.025",
            "primitives" : [
                {
                    "attributes" : {
                        "POSITION" : 8,
                        "NORMAL" : 9,
                        "TEXCOORD_0" : 10
                    },
                    "indices" : 11,
                    "material" : 2
                }
            ]
        },
        {
            "name" : "Cube.028",
            "primitives" : [
                {
                    "attributes" : {
                        "POSITION" : 12,
                        "NORMAL" : 13,
                        "TEXCOORD_0" : 14
                    },
                    "indices" : 15,
                    "material" : 1
                },
                {
                    "attributes" : {
                        "POSITION" : 16,
                        "NORMAL" : 17,
                        "TEXCOORD_0" : 18
                    },
                    "indices" : 19,
                    "material" : 2
                },
                {
                    "attributes" : {
                        "POSITION" : 20,
                        "NORMAL" : 21,
                        "TEXCOORD_0" : 22
                    },
                    "indices" : 23,
                    "material" : 0
                }
            ]
        }
    ],
    "accessors" : [
        {
            "bufferView" : 0,
            "componentType" : 5126,
            "count" : 1204,
            "max" : [
                0.6720703840255737,
                1.0356944799423218,
                0.63694828748703
            ],
            "min" : [
                -0.6720980405807495,
                -0.03395897150039673,
                -0.6644389033317566
            ],
            "type" : "VEC3"
        },
        {
            "bufferView" : 1,
            "componentType" : 5126,
            "count" : 1204,
            "type" : "VEC3"
        },
        {
            "bufferView" : 2,
            "componentType" : 5126,
            "count" : 1204,
            "type" : "VEC2"
        },
        {
            "bufferView" : 3,
            "componentType" : 5123,
            "count" : 5934,
            "type" : "SCALAR"
        },
        {
            "bufferView" : 4,
            "componentType" : 5126,
            "count" : 94,
            "max" : [
                0.11955079436302185,
                1.257515549659729,
                0.14678676426410675
            ],
            "min" : [
                -0.1076185330748558,
                0.8362064957618713,
                -0.08333646506071091
            ],
            "type" : "VEC3"
        },
        {
            "bufferView" : 5,
            "componentType" : 5126,
            "count" : 94,
            "type" : "VEC3"
        },
        {
            "bufferView" : 6,
            "componentType" : 5126,
            "count" : 94,
            "type" : "VEC2"
        },
        {
            "bufferView" : 7,
            "componentType" : 5123,
            "count" : 312,
            "type" : "SCALAR"
        },
        {
            "bufferView" : 8,
            "componentType" : 5126,
            "count" : 364,
            "max" : [
                0.49999964237213135,
                0.9339144229888916,
                0.4999997019767761
            ],
            "min" : [
                -0.4999997615814209,
                0,
                -0.49999961256980896
            ],
            "type" : "VEC3"
        },
        {
            "bufferView" : 9,
            "componentType" : 5126,
            "count" : 364,
            "type" : "VEC3"
        },
        {
            "bufferView" : 10,
            "componentType" : 5126,
            "count" : 364,
            "type" : "VEC2"
        },
        {
            "bufferView" : 11,
            "componentType" : 5123,
            "count" : 1584,
            "type" : "SCALAR"
        },
        {
            "bufferView" : 12,
            "componentType" : 5126,
            "count" : 344,
            "max" : [
                0.49547144770622253,
                0.6750097274780273,
                0.3499997556209564
            ],
            "min" : [
                -0.4954715073108673,
                -2.2351741790771484e-08,
                -0.3499997556209564
            ],
            "type" : "VEC3"
        },
        {
            "bufferView" : 13,
            "componentType" : 5126,
            "count" : 344,
            "type" : "VEC3"
        },
        {
            "bufferView" : 14,
            "componentType" : 5126,
            "count" : 344,
            "type" : "VEC2"
        },
        {
            "bufferView" : 15,
            "componentType" : 5123,
            "count" : 1626,
            "type" : "SCALAR"
        },
        {
            "bufferView" : 16,
            "componentType" : 5126,
            "count" : 270,
            "max" : [
                0.45495763421058655,
                0.7760487794876099,
                0.42927709221839905
            ],
            "min" : [
                -0.45495766401290894,
                0.14121994376182556,
                -0.47305828332901
            ],
            "type" : "VEC3"
        },
        {
            "bufferView" : 17,
            "componentType" : 5126,
            "count" : 270,
            "type" : "VEC3"
        },
        {
            "bufferView" : 18,
            "componentType" : 5126,
            "count" : 270,
            "type" : "VEC2"
        },
        {
            "bufferView" : 19,
            "componentType" : 5123,
            "count" : 1116,
            "type" : "SCALAR"
        },
        {
            "bufferView" : 20,
            "componentType" : 5126,
            "count" : 119,
            "max" : [
                0.4689466655254364,
                0.25209128856658936,
                0.09628043323755264
            ],
            "min" : [
                -0.4689467251300812,
                0.15690076351165771,
                -0.09628044813871384
            ],
            "type" : "VEC3"
        },
        {
            "bufferView" : 21,
            "componentType" : 5126,
            "count" : 119,
            "type" : "VEC3"
        },
        {
            "bufferView" : 22,
            "componentType" : 5126,
            "count" : 119,
            "type" : "VEC2"
        },
        {
            "bufferView" : 23,
            "componentType" : 5123,
            "count" : 504,
            "type" : "SCALAR"
        }
    ],
    "bufferViews" : [
        {
            "buffer" : 0,
            "byteLength" : 14448,
            "byteOffset" : 0
        },
        {
            "buffer" : 0,
            "byteLength" : 14448,
            "byteOffset" : 14448
        },
        {
            "buffer" : 0,
            "byteLength" : 9632,
            "byteOffset" : 28896
        },
        {
            "buffer" : 0,
            "byteLength" : 11868,
            "byteOffset" : 38528
        },
        {
            "buffer" : 0,
            "byteLength" : 1128,
            "byteOffset" : 50396
        },
        {
            "buffer" : 0,
            "byteLength" : 1128,
            "byteOffset" : 51524
        },
        {
            "buffer" : 0,
            "byteLength" : 752,
            "byteOffset" : 52652
        },
        {
            "buffer" : 0,
            "byteLength" : 624,
            "byteOffset" : 53404
        },
        {
            "buffer" : 0,
            "byteLength" : 4368,
            "byteOffset" : 54028
        },
        {
            "buffer" : 0,
            "byteLength" : 4368,
            "byteOffset" : 58396
        },
        {
            "buffer" : 0,
            "byteLength" : 2912,
            "byteOffset" : 62764
        },
        {
            "buffer" : 0,
            "byteLength" : 3168,
            "byteOffset" : 65676
        },
        {
            "buffer" : 0,
            "byteLength" : 4128,
            "byteOffset" : 68844
        },
        {
            "buffer" : 0,
            "byteLength" : 4128,
            "byteOffset" : 72972
        },
        {
            "buffer" : 0,
            "byteLength" : 2752,
            "byteOffset" : 77100
        },
        {
            "buffer" : 0,
            "byteLength" : 3252,
            "byteOffset" : 79852
        },
        {
            "buffer" : 0,
            "byteLength" : 3240,
            "byteOffset" : 83104
        },
        {
            "buffer" : 0,
            "byteLength" : 3240,
            "byteOffset" : 86344
        },
        {
            "buffer" : 0,
            "byteLength" : 2160,
            "byteOffset" : 89584
        },
        {
            "buffer" : 0,
            "byteLength" : 2232,
            "byteOffset" : 91744
        },
        {
            "buffer" : 0,
            "byteLength" : 1428,
            "byteOffset" : 93976
        },
        {
            "buffer" : 0,
            "byteLength" : 1428,
            "byteOffset" : 95404
        },
        {
            "buffer" : 0,
            "byteLength" : 952,
            "byteOffset" : 96832
        },
        {
            "buffer" : 0,
            "byteLength" : 1008,
            "byteOffset" : 97784
        }
    ],
    "buffers" : [
        {
            "byteLength" : 98792,
            "uri" : "data:application/octet-stream;base64,"
        }
    ]
}
