{
	"asset":{
		"version":"2.0",
		"generator":"Created using the official Cinema 4D glTF Exporter 1.000x290161"
	},
	"scenes":[{
		"nodes":[0]
	}],
	"nodes":[{
		"name":"samas",
		"translation":[0.0,
		267.295654296875,
		0.0],
		"rotation":[0.0,
		0.0,
		0.0,
		-1.0],
		"scale":[1.0,
		1.0,
		1.0],
		"children":[1]
	},
	{
		"name":"donnie",
		"translation":[0.0,
		-0.14056523144245149,
		0.0],
		"rotation":[0.0,
		0.0,
		0.0,
		-1.0],
		"scale":[1.0,
		1.0,
		1.0],
		"children":[2,
		8,
		12,
		13,
		14,
		15,
		16,
		17]
	},
	{
		"name":"shades",
		"translation":[-0.0028933235444128515,
		1.4428597688674927,
		3.064215547965432e-14],
		"rotation":[0.0,
		0.0,
		0.0,
		-1.0],
		"scale":[1.0,
		1.0,
		1.0],
		"children":[3,
		4,
		5,
		6,
		7]
	},
	{
		"name":"cube.1",
		"translation":[0.0016314804088324309,
		0.023164762184023858,
		-0.022086679935455323],
		"rotation":[0.0,
		-0.7071067690849304,
		0.0,
		-0.7071067690849304],
		"scale":[1.0,
		1.0,
		1.0],
		"mesh":0
	},
	{
		"name":"cube_1.1",
		"translation":[0.0016314804088324309,
		0.023164762184023858,
		-0.022086679935455323],
		"rotation":[0.0,
		-0.7071067690849304,
		0.0,
		-0.7071067690849304],
		"scale":[1.0,
		1.0,
		1.0],
		"mesh":1
	},
	{
		"name":"cube_2.1",
		"translation":[0.0016314804088324309,
		0.023164762184023858,
		-0.022086679935455323],
		"rotation":[0.0,
		-0.7071067690849304,
		0.0,
		-0.7071067690849304],
		"scale":[1.0,
		1.0,
		1.0],
		"mesh":2
	},
	{
		"name":"cube_3.1",
		"translation":[0.0016314804088324309,
		0.023164762184023858,
		-0.022086679935455323],
		"rotation":[0.0,
		-0.7071067690849304,
		0.0,
		-0.7071067690849304],
		"scale":[1.0,
		1.0,
		1.0],
		"mesh":3
	},
	{
		"name":"cube_4.1",
		"translation":[0.0016314804088324309,
		0.023164762184023858,
		-0.022086679935455323],
		"rotation":[0.0,
		-0.7071067690849304,
		0.0,
		-0.7071067690849304],
		"scale":[1.0,
		1.0,
		1.0],
		"mesh":4
	},
	{
		"name":"beak",
		"translation":[0.0,
		-204.13543701171876,
		0.0],
		"rotation":[0.0,
		0.0,
		0.0,
		-1.0],
		"scale":[1.0,
		1.0,
		1.0],
		"children":[9,
		10,
		11]
	},
	{
		"name":"arm.2",
		"translation":[0.0029453972820192577,
		205.33401489257813,
		0.1736001968383789],
		"rotation":[0.0,
		0.0,
		0.0,
		-1.0],
		"scale":[1.0,
		1.0,
		1.0],
		"mesh":5
	},
	{
		"name":"arm.1",
		"translation":[0.0029453972820192577,
		205.27691650390626,
		0.1736001968383789],
		"rotation":[0.0,
		0.0,
		0.0,
		-1.0],
		"scale":[1.0,
		1.0,
		1.0],
		"mesh":6
	},
	{
		"name":"arm",
		"translation":[0.0029453972820192577,
		205.21072387695313,
		0.1736001968383789],
		"rotation":[0.0,
		0.0,
		0.0,
		-1.0],
		"scale":[1.0,
		1.0,
		1.0],
		"mesh":7
	},
	{
		"name":"leg",
		"translation":[0.16695240139961244,
		0.3085240423679352,
		0.25398921966552737],
		"rotation":[-0.3895348012447357,
		0.0,
		0.0,
		-0.921011745929718],
		"scale":[1.0,
		1.0,
		1.0],
		"mesh":8
	},
	{
		"name":"leg.1",
		"translation":[-0.1701282113790512,
		0.2125502973794937,
		0.0987156480550766],
		"rotation":[-0.257240891456604,
		-3.0912689094449858e-17,
		8.228933354381654e-18,
		-0.966347336769104],
		"scale":[1.0,
		1.0,
		1.0],
		"mesh":9
	},
	{
		"name":"arm",
		"translation":[0.4425743818283081,
		0.9421706795692444,
		-3.3068166260807888e-17],
		"rotation":[0.6557199358940125,
		-1.9138186665063783e-16,
		-1.6621483695670786e-16,
		-0.7550042271614075],
		"scale":[1.0,
		1.0,
		1.0],
		"mesh":10
	},
	{
		"name":"arm.1",
		"translation":[-0.45106497406959536,
		0.956312358379364,
		2.4446590585203155e-15],
		"rotation":[-0.5355798006057739,
		0.0,
		0.0,
		-0.8444846272468567],
		"scale":[1.0,
		1.0,
		1.0],
		"mesh":11
	},
	{
		"name":"body",
		"translation":[0.0,
		0.4874809682369232,
		0.0],
		"rotation":[0.0,
		0.0,
		0.0,
		-1.0],
		"scale":[1.0,
		1.0,
		1.0],
		"mesh":12
	},
	{
		"name":"Head",
		"translation":[0.0,
		1.3576334714889527,
		0.0],
		"rotation":[0.0,
		0.0,
		0.0,
		-1.0],
		"scale":[1.0,
		1.0,
		1.0],
		"mesh":13
	}],
	"meshes":[{
		"primitives":[{
			"attributes":{
				"POSITION":1,
				"NORMAL":2,
				"TEXCOORD_0":3
			},
			"indices":0,
			"material":0
		}]
	},
	{
		"primitives":[{
			"attributes":{
				"POSITION":5,
				"NORMAL":6,
				"TEXCOORD_0":7
			},
			"indices":4,
			"material":0
		}]
	},
	{
		"primitives":[{
			"attributes":{
				"POSITION":9,
				"NORMAL":10,
				"TEXCOORD_0":11
			},
			"indices":8,
			"material":0
		}]
	},
	{
		"primitives":[{
			"attributes":{
				"POSITION":13,
				"NORMAL":14,
				"TEXCOORD_0":15
			},
			"indices":12,
			"material":0
		}]
	},
	{
		"primitives":[{
			"attributes":{
				"POSITION":17,
				"NORMAL":18,
				"TEXCOORD_0":19
			},
			"indices":16,
			"material":0
		}]
	},
	{
		"primitives":[{
			"attributes":{
				"POSITION":21,
				"NORMAL":22,
				"TEXCOORD_0":23
			},
			"indices":20,
			"material":1
		}]
	},
	{
		"primitives":[{
			"attributes":{
				"POSITION":25,
				"NORMAL":26,
				"TEXCOORD_0":27
			},
			"indices":24,
			"material":1
		}]
	},
	{
		"primitives":[{
			"attributes":{
				"POSITION":29,
				"NORMAL":30,
				"TEXCOORD_0":31
			},
			"indices":28,
			"material":2
		}]
	},
	{
		"primitives":[{
			"attributes":{
				"POSITION":33,
				"NORMAL":34,
				"TEXCOORD_0":35
			},
			"indices":32,
			"material":3
		}]
	},
	{
		"primitives":[{
			"attributes":{
				"POSITION":37,
				"NORMAL":38,
				"TEXCOORD_0":39
			},
			"indices":36,
			"material":3
		}]
	},
	{
		"primitives":[{
			"attributes":{
				"POSITION":41,
				"NORMAL":42,
				"TEXCOORD_0":43
			},
			"indices":40,
			"material":3
		}]
	},
	{
		"primitives":[{
			"attributes":{
				"POSITION":45,
				"NORMAL":46,
				"TEXCOORD_0":47
			},
			"indices":44,
			"material":3
		}]
	},
	{
		"primitives":[{
			"attributes":{
				"POSITION":49,
				"NORMAL":50,
				"TEXCOORD_0":51
			},
			"indices":48,
			"material":3
		}]
	},
	{
		"primitives":[{
			"attributes":{
				"POSITION":53,
				"NORMAL":54,
				"TEXCOORD_0":55
			},
			"indices":52,
			"material":3
		}]
	}],
	"accessors":[{
		"bufferView":0,
		"type":"SCALAR",
		"componentType":5123,
		"count":36,
		"byteOffset":0,
		"min":[0],
		"max":[23]
	},
	{
		"bufferView":1,
		"type":"VEC3",
		"componentType":5126,
		"count":24,
		"byteOffset":0,
		"min":[-0.40818750858306887,
		-1.2121553760735537e-13,
		-0.34987500309944155],
		"max":[-0.34987500309944155,
		0.05831250175833702,
		0.34987500309944155]
	},
	{
		"bufferView":1,
		"type":"VEC3",
		"componentType":5126,
		"count":24,
		"byteOffset":12,
		"min":[-1.0,
		-1.0,
		-1.0],
		"max":[1.0,
		1.0,
		1.0]
	},
	{
		"bufferView":1,
		"type":"VEC2",
		"componentType":5126,
		"count":24,
		"byteOffset":24,
		"min":[0.0,
		0.0],
		"max":[0.75,
		0.75]
	},
	{
		"bufferView":2,
		"type":"SCALAR",
		"componentType":5123,
		"count":36,
		"byteOffset":0,
		"min":[0],
		"max":[23]
	},
	{
		"bufferView":3,
		"type":"VEC3",
		"componentType":5126,
		"count":24,
		"byteOffset":0,
		"min":[-0.40818750858306887,
		-1.2125717097077882e-13,
		0.34987500309944155],
		"max":[0.34987500309944155,
		0.05831250175833702,
		0.40818750858306887]
	},
	{
		"bufferView":3,
		"type":"VEC3",
		"componentType":5126,
		"count":24,
		"byteOffset":12,
		"min":[-1.0,
		-1.0,
		-1.0],
		"max":[1.0,
		1.0,
		1.0]
	},
	{
		"bufferView":3,
		"type":"VEC2",
		"componentType":5126,
		"count":24,
		"byteOffset":24,
		"min":[0.0,
		0.0],
		"max":[0.8125,
		0.0625]
	},
	{
		"bufferView":4,
		"type":"SCALAR",
		"componentType":5123,
		"count":36,
		"byteOffset":0,
		"min":[0],
		"max":[23]
	},
	{
		"bufferView":5,
		"type":"VEC3",
		"componentType":5126,
		"count":24,
		"byteOffset":0,
		"min":[-0.40818750858306887,
		-1.2127972237596651e-13,
		-0.40818750858306887],
		"max":[0.34987500309944155,
		0.05831250175833702,
		-0.34987500309944155]
	},
	{
		"bufferView":5,
		"type":"VEC3",
		"componentType":5126,
		"count":24,
		"byteOffset":12,
		"min":[-1.0,
		-1.0,
		-1.0],
		"max":[1.0,
		1.0,
		1.0]
	},
	{
		"bufferView":5,
		"type":"VEC2",
		"componentType":5126,
		"count":24,
		"byteOffset":24,
		"min":[0.0,
		0.0],
		"max":[0.8125,
		0.0625]
	},
	{
		"bufferView":6,
		"type":"SCALAR",
		"componentType":5123,
		"count":36,
		"byteOffset":0,
		"min":[0],
		"max":[23]
	},
	{
		"bufferView":7,
		"type":"VEC3",
		"componentType":5126,
		"count":24,
		"byteOffset":0,
		"min":[-0.40818750858306887,
		-0.05831250175833702,
		0.05831250175833702],
		"max":[-0.34987500309944155,
		-1.211912514786917e-13,
		0.2915624976158142]
	},
	{
		"bufferView":7,
		"type":"VEC3",
		"componentType":5126,
		"count":24,
		"byteOffset":12,
		"min":[-1.0,
		-1.0,
		-1.0],
		"max":[1.0,
		1.0,
		1.0]
	},
	{
		"bufferView":7,
		"type":"VEC2",
		"componentType":5126,
		"count":24,
		"byteOffset":24,
		"min":[0.0,
		0.0],
		"max":[0.25,
		0.25]
	},
	{
		"bufferView":8,
		"type":"SCALAR",
		"componentType":5123,
		"count":36,
		"byteOffset":0,
		"min":[0],
		"max":[23]
	},
	{
		"bufferView":9,
		"type":"VEC3",
		"componentType":5126,
		"count":24,
		"byteOffset":0,
		"min":[-0.40818750858306887,
		-0.05831250175833702,
		-0.2915624976158142],
		"max":[-0.34987500309944155,
		-1.2120165981954756e-13,
		-0.05831250175833702]
	},
	{
		"bufferView":9,
		"type":"VEC3",
		"componentType":5126,
		"count":24,
		"byteOffset":12,
		"min":[-1.0,
		-1.0,
		-1.0],
		"max":[1.0,
		1.0,
		1.0]
	},
	{
		"bufferView":9,
		"type":"VEC2",
		"componentType":5126,
		"count":24,
		"byteOffset":24,
		"min":[0.0,
		0.0],
		"max":[0.25,
		0.25]
	},
	{
		"bufferView":10,
		"type":"SCALAR",
		"componentType":5123,
		"count":36,
		"byteOffset":0,
		"min":[0],
		"max":[23]
	},
	{
		"bufferView":11,
		"type":"VEC3",
		"componentType":5126,
		"count":24,
		"byteOffset":0,
		"min":[-0.06625880300998688,
		-0.030456557869911195,
		-0.21132740378379823],
		"max":[0.06625880300998688,
		0.030456557869911195,
		0.21132740378379823]
	},
	{
		"bufferView":11,
		"type":"VEC3",
		"componentType":5126,
		"count":24,
		"byteOffset":12,
		"min":[-1.0,
		-1.0,
		-1.0],
		"max":[1.0,
		1.0,
		1.0]
	},
	{
		"bufferView":11,
		"type":"VEC2",
		"componentType":5126,
		"count":24,
		"byteOffset":24,
		"min":[0.0,
		0.0],
		"max":[1.0,
		1.0]
	},
	{
		"bufferView":12,
		"type":"SCALAR",
		"componentType":5123,
		"count":36,
		"byteOffset":0,
		"min":[0],
		"max":[23]
	},
	{
		"bufferView":13,
		"type":"VEC3",
		"componentType":5126,
		"count":24,
		"byteOffset":0,
		"min":[-0.11173710227012634,
		-0.030456557869911195,
		-0.23511679470539094],
		"max":[0.11173710227012634,
		0.030456557869911195,
		0.23511679470539094]
	},
	{
		"bufferView":13,
		"type":"VEC3",
		"componentType":5126,
		"count":24,
		"byteOffset":12,
		"min":[-1.0,
		-1.0,
		-1.0],
		"max":[1.0,
		1.0,
		1.0]
	},
	{
		"bufferView":13,
		"type":"VEC2",
		"componentType":5126,
		"count":24,
		"byteOffset":24,
		"min":[0.0,
		0.0],
		"max":[1.0,
		1.0]
	},
	{
		"bufferView":14,
		"type":"SCALAR",
		"componentType":5123,
		"count":36,
		"byteOffset":0,
		"min":[0],
		"max":[23]
	},
	{
		"bufferView":15,
		"type":"VEC3",
		"componentType":5126,
		"count":24,
		"byteOffset":0,
		"min":[-0.11173710227012634,
		-0.030456557869911195,
		-0.21132740378379823],
		"max":[0.11173710227012634,
		0.030456557869911195,
		0.21132740378379823]
	},
	{
		"bufferView":15,
		"type":"VEC3",
		"componentType":5126,
		"count":24,
		"byteOffset":12,
		"min":[-1.0,
		-1.0,
		-1.0],
		"max":[1.0,
		1.0,
		1.0]
	},
	{
		"bufferView":15,
		"type":"VEC2",
		"componentType":5126,
		"count":24,
		"byteOffset":24,
		"min":[0.0,
		0.0],
		"max":[1.0,
		1.0]
	},
	{
		"bufferView":16,
		"type":"SCALAR",
		"componentType":5123,
		"count":36,
		"byteOffset":0,
		"min":[0],
		"max":[23]
	},
	{
		"bufferView":17,
		"type":"VEC3",
		"componentType":5126,
		"count":24,
		"byteOffset":0,
		"min":[-0.15846969187259675,
		-1.3795692920684815,
		-0.21132740378379823],
		"max":[0.15846969187259675,
		-0.31727299094200137,
		0.21132740378379823]
	},
	{
		"bufferView":17,
		"type":"VEC3",
		"componentType":5126,
		"count":24,
		"byteOffset":12,
		"min":[-1.0,
		-1.0,
		-1.0],
		"max":[1.0,
		1.0,
		1.0]
	},
	{
		"bufferView":17,
		"type":"VEC2",
		"componentType":5126,
		"count":24,
		"byteOffset":24,
		"min":[0.0,
		0.0],
		"max":[1.0,
		1.0]
	},
	{
		"bufferView":18,
		"type":"SCALAR",
		"componentType":5123,
		"count":36,
		"byteOffset":0,
		"min":[0],
		"max":[23]
	},
	{
		"bufferView":19,
		"type":"VEC3",
		"componentType":5126,
		"count":24,
		"byteOffset":0,
		"min":[-0.15846969187259675,
		-1.29862380027771,
		-0.21132740378379823],
		"max":[0.15846969187259675,
		-0.23632746934890748,
		0.21132740378379823]
	},
	{
		"bufferView":19,
		"type":"VEC3",
		"componentType":5126,
		"count":24,
		"byteOffset":12,
		"min":[-1.0,
		-1.0,
		-1.0],
		"max":[1.0,
		1.0,
		1.0]
	},
	{
		"bufferView":19,
		"type":"VEC2",
		"componentType":5126,
		"count":24,
		"byteOffset":24,
		"min":[0.0,
		0.0],
		"max":[1.0,
		1.0]
	},
	{
		"bufferView":20,
		"type":"SCALAR",
		"componentType":5123,
		"count":36,
		"byteOffset":0,
		"min":[0],
		"max":[23]
	},
	{
		"bufferView":21,
		"type":"VEC3",
		"componentType":5126,
		"count":24,
		"byteOffset":0,
		"min":[-0.11173710227012634,
		-0.9858378767967224,
		-0.21132740378379823],
		"max":[0.11173710227012634,
		0.07645846903324127,
		0.21132740378379823]
	},
	{
		"bufferView":21,
		"type":"VEC3",
		"componentType":5126,
		"count":24,
		"byteOffset":12,
		"min":[-1.0,
		-1.0,
		-1.0],
		"max":[1.0,
		1.0,
		1.0]
	},
	{
		"bufferView":21,
		"type":"VEC2",
		"componentType":5126,
		"count":24,
		"byteOffset":24,
		"min":[0.0,
		0.0],
		"max":[1.0,
		1.0]
	},
	{
		"bufferView":22,
		"type":"SCALAR",
		"componentType":5123,
		"count":36,
		"byteOffset":0,
		"min":[0],
		"max":[23]
	},
	{
		"bufferView":23,
		"type":"VEC3",
		"componentType":5126,
		"count":24,
		"byteOffset":0,
		"min":[-0.11173710227012634,
		-0.999979555606842,
		-0.21132740378379823],
		"max":[0.11173710227012634,
		0.062316786497831348,
		0.21132740378379823]
	},
	{
		"bufferView":23,
		"type":"VEC3",
		"componentType":5126,
		"count":24,
		"byteOffset":12,
		"min":[-1.0,
		-1.0,
		-1.0],
		"max":[1.0,
		1.0,
		1.0]
	},
	{
		"bufferView":23,
		"type":"VEC2",
		"componentType":5126,
		"count":24,
		"byteOffset":24,
		"min":[0.0,
		0.0],
		"max":[1.0,
		1.0]
	},
	{
		"bufferView":24,
		"type":"SCALAR",
		"componentType":5123,
		"count":36,
		"byteOffset":0,
		"min":[0],
		"max":[23]
	},
	{
		"bufferView":25,
		"type":"VEC3",
		"componentType":5126,
		"count":24,
		"byteOffset":0,
		"min":[-0.33265700936317446,
		-0.5311481952667236,
		-0.21132740378379823],
		"max":[0.33265700936317446,
		0.5311481952667236,
		0.21132740378379823]
	},
	{
		"bufferView":25,
		"type":"VEC3",
		"componentType":5126,
		"count":24,
		"byteOffset":12,
		"min":[-1.0,
		-1.0,
		-1.0],
		"max":[1.0,
		1.0,
		1.0]
	},
	{
		"bufferView":25,
		"type":"VEC2",
		"componentType":5126,
		"count":24,
		"byteOffset":24,
		"min":[0.0,
		0.0],
		"max":[1.0,
		1.0]
	},
	{
		"bufferView":26,
		"type":"SCALAR",
		"componentType":5123,
		"count":36,
		"byteOffset":0,
		"min":[0],
		"max":[23]
	},
	{
		"bufferView":27,
		"type":"VEC3",
		"componentType":5126,
		"count":24,
		"byteOffset":0,
		"min":[-0.33265700936317446,
		-0.33265700936317446,
		-0.33265700936317446],
		"max":[0.33265700936317446,
		0.33265700936317446,
		0.33265700936317446]
	},
	{
		"bufferView":27,
		"type":"VEC3",
		"componentType":5126,
		"count":24,
		"byteOffset":12,
		"min":[-1.0,
		-1.0,
		-1.0],
		"max":[1.0,
		1.0,
		1.0]
	},
	{
		"bufferView":27,
		"type":"VEC2",
		"componentType":5126,
		"count":24,
		"byteOffset":24,
		"min":[0.0,
		0.0],
		"max":[1.0,
		1.0]
	}],
	"bufferViews":[{
		"buffer":0,
		"byteOffset":0,
		"byteLength":72,
		"target":34963
	},
	{
		"buffer":0,
		"byteOffset":72,
		"byteLength":768,
		"target":34962,
		"byteStride":32
	},
	{
		"buffer":1,
		"byteOffset":0,
		"byteLength":72,
		"target":34963
	},
	{
		"buffer":1,
		"byteOffset":72,
		"byteLength":768,
		"target":34962,
		"byteStride":32
	},
	{
		"buffer":2,
		"byteOffset":0,
		"byteLength":72,
		"target":34963
	},
	{
		"buffer":2,
		"byteOffset":72,
		"byteLength":768,
		"target":34962,
		"byteStride":32
	},
	{
		"buffer":3,
		"byteOffset":0,
		"byteLength":72,
		"target":34963
	},
	{
		"buffer":3,
		"byteOffset":72,
		"byteLength":768,
		"target":34962,
		"byteStride":32
	},
	{
		"buffer":4,
		"byteOffset":0,
		"byteLength":72,
		"target":34963
	},
	{
		"buffer":4,
		"byteOffset":72,
		"byteLength":768,
		"target":34962,
		"byteStride":32
	},
	{
		"buffer":5,
		"byteOffset":0,
		"byteLength":72,
		"target":34963
	},
	{
		"buffer":5,
		"byteOffset":72,
		"byteLength":768,
		"target":34962,
		"byteStride":32
	},
	{
		"buffer":6,
		"byteOffset":0,
		"byteLength":72,
		"target":34963
	},
	{
		"buffer":6,
		"byteOffset":72,
		"byteLength":768,
		"target":34962,
		"byteStride":32
	},
	{
		"buffer":7,
		"byteOffset":0,
		"byteLength":72,
		"target":34963
	},
	{
		"buffer":7,
		"byteOffset":72,
		"byteLength":768,
		"target":34962,
		"byteStride":32
	},
	{
		"buffer":8,
		"byteOffset":0,
		"byteLength":72,
		"target":34963
	},
	{
		"buffer":8,
		"byteOffset":72,
		"byteLength":768,
		"target":34962,
		"byteStride":32
	},
	{
		"buffer":9,
		"byteOffset":0,
		"byteLength":72,
		"target":34963
	},
	{
		"buffer":9,
		"byteOffset":72,
		"byteLength":768,
		"target":34962,
		"byteStride":32
	},
	{
		"buffer":10,
		"byteOffset":0,
		"byteLength":72,
		"target":34963
	},
	{
		"buffer":10,
		"byteOffset":72,
		"byteLength":768,
		"target":34962,
		"byteStride":32
	},
	{
		"buffer":11,
		"byteOffset":0,
		"byteLength":72,
		"target":34963
	},
	{
		"buffer":11,
		"byteOffset":72,
		"byteLength":768,
		"target":34962,
		"byteStride":32
	},
	{
		"buffer":12,
		"byteOffset":0,
		"byteLength":72,
		"target":34963
	},
	{
		"buffer":12,
		"byteOffset":72,
		"byteLength":768,
		"target":34962,
		"byteStride":32
	},
	{
		"buffer":13,
		"byteOffset":0,
		"byteLength":72,
		"target":34963
	},
	{
		"buffer":13,
		"byteOffset":72,
		"byteLength":768,
		"target":34962,
		"byteStride":32
	}],
	"buffers":[{
		"uri":"data:application/octet-stream;base64,",
		"byteLength":840
	},
	{
		"uri":"data:application/octet-stream;base64,",
		"byteLength":840
	},
	{
		"uri":"data:application/octet-stream;base64,",
		"byteLength":840
	},
	{
		"uri":"data:application/octet-stream;base64,",
		"byteLength":840
	},
	{
		"uri":"data:application/octet-stream;base64,",
		"byteLength":840
	},
	{
		"uri":"data:application/octet-stream;base64,",
		"byteLength":840
	},
	{
		"uri":"data:application/octet-stream;base64,",
		"byteLength":840
	},
	{
		"uri":"data:application/octet-stream;base64,",
		"byteLength":840
	},
	{
		"uri":"data:application/octet-stream;base64,",
		"byteLength":840
	},
	{
		"uri":"data:application/octet-stream;base64,",
		"byteLength":840
	},
	{
		"uri":"data:application/octet-stream;base64,",
		"byteLength":840
	},
	{
		"uri":"data:application/octet-stream;base64,",
		"byteLength":840
	},
	{
		"uri":"data:application/octet-stream;base64,",
		"byteLength":840
	},
	{
		"uri":"data:application/octet-stream;base64,",
		"byteLength":840
	}],
	"materials":[{
		"pbrMetallicRoughness":{
			"baseColorFactor":[0.09,
			0.09,
			0.09,
			1.0],
			"metallicFactor":0.0,
			"roughnessFactor":0.5
		},
		"emissiveFactor":[0.0,
		0.0,
		0.0],
		"alphaMode":"OPAQUE",
		"doubleSided":false,
		"name":"Mat_2"
	},
	{
		"pbrMetallicRoughness":{
			"baseColorFactor":[0.6,
			0.5586,
			0.18599999999999998,
			1.0],
			"metallicFactor":0.0,
			"roughnessFactor":0.5
		},
		"emissiveFactor":[0.0,
		0.0,
		0.0],
		"alphaMode":"OPAQUE",
		"doubleSided":false,
		"name":"Mat_25"
	},
	{
		"pbrMetallicRoughness":{
			"baseColorFactor":[0.79184,
			0.84,
			0.47880000000000008,
			1.0],
			"metallicFactor":0.0,
			"roughnessFactor":0.5
		},
		"emissiveFactor":[0.0,
		0.0,
		0.0],
		"alphaMode":"OPAQUE",
		"doubleSided":false,
		"name":"Mat_28"
	},
	{
		"pbrMetallicRoughness":{
			"baseColorFactor":[0.5313200000000007,
			0.04439999999999995,
			0.74,
			1.0],
			"metallicFactor":0.0,
			"roughnessFactor":0.5
		},
		"emissiveFactor":[0.0,
		0.0,
		0.0],
		"alphaMode":"OPAQUE",
		"doubleSided":false,
		"name":"Mat_29"
	}]
}