{
	"asset":{
		"version":"2.0",
		"generator":"Created using the official Cinema 4D glTF Exporter 1.000x290161"
	},
	"scenes":[{
		"nodes":[0]
	}],
	"nodes":[{
		"name":"samas",
		"translation":[0.0,
		267.295654296875,
		0.0],
		"rotation":[0.0,
		0.0,
		0.0,
		-1.0],
		"scale":[1.0,
		1.0,
		1.0],
		"children":[1]
	},
	{
		"name":"donnie",
		"translation":[0.0,
		-0.14056523144245149,
		0.0],
		"rotation":[0.0,
		0.0,
		0.0,
		-1.0],
		"scale":[1.0,
		1.0,
		1.0],
		"children":[2]
	},
	{
		"name":"Moonfinity_Gauntlet.obj",
		"translation":[0.4184250831604004,
		0.7797471284866333,
		0.8154281377792358],
		"rotation":[0.006964400410652161,
		0.7630628347396851,
		-0.6462395191192627,
		-0.007820190861821175],
		"scale":[1.0,
		1.0,
		1.3300000429153443],
		"children":[3,
		4,
		5,
		6,
		7,
		8,
		9,
		10,
		11,
		12,
		13,
		14,
		15]
	},
	{
		"name":"cube",
		"translation":[0.4633222222328186,
		-1.184621810913086,
		0.6217370629310608],
		"rotation":[0.17032521963119508,
		0.0,
		0.0,
		-0.985387921333313],
		"scale":[1.0,
		1.0,
		1.0],
		"mesh":0
	},
	{
		"name":"cube_1",
		"translation":[0.4633222222328186,
		-1.184621810913086,
		0.6217370629310608],
		"rotation":[0.17032521963119508,
		0.0,
		0.0,
		-0.985387921333313],
		"scale":[1.0,
		1.0,
		1.0],
		"mesh":1
	},
	{
		"name":"cube_2",
		"translation":[0.4633222222328186,
		-1.184621810913086,
		0.6217370629310608],
		"rotation":[0.17032521963119508,
		0.0,
		0.0,
		-0.985387921333313],
		"scale":[1.0,
		1.0,
		1.0],
		"mesh":2
	},
	{
		"name":"cube_3",
		"translation":[0.4633222222328186,
		-1.184621810913086,
		0.6217370629310608],
		"rotation":[0.17032521963119508,
		0.0,
		0.0,
		-0.985387921333313],
		"scale":[1.0,
		1.0,
		1.0],
		"mesh":3
	},
	{
		"name":"cube_4",
		"translation":[0.4633222222328186,
		-1.184621810913086,
		0.6217370629310608],
		"rotation":[0.17032521963119508,
		0.0,
		0.0,
		-0.985387921333313],
		"scale":[1.0,
		1.0,
		1.0],
		"mesh":4
	},
	{
		"name":"cube_5",
		"translation":[0.4633222222328186,
		-1.184621810913086,
		0.6217370629310608],
		"rotation":[0.17032521963119508,
		0.0,
		0.0,
		-0.985387921333313],
		"scale":[1.0,
		1.0,
		1.0],
		"mesh":5
	},
	{
		"name":"cube_6",
		"translation":[0.4633222222328186,
		-1.184621810913086,
		0.6217370629310608],
		"rotation":[0.17032521963119508,
		0.0,
		0.0,
		-0.985387921333313],
		"scale":[1.0,
		1.0,
		1.0],
		"mesh":6
	},
	{
		"name":"cube_7",
		"translation":[0.4633222222328186,
		-1.184621810913086,
		0.6217370629310608],
		"rotation":[0.17032521963119508,
		0.0,
		0.0,
		-0.985387921333313],
		"scale":[1.0,
		1.0,
		1.0],
		"mesh":7
	},
	{
		"name":"cube_8",
		"translation":[0.4633222222328186,
		-1.184621810913086,
		0.6217370629310608],
		"rotation":[0.17032521963119508,
		0.0,
		0.0,
		-0.985387921333313],
		"scale":[1.0,
		1.0,
		1.0],
		"mesh":8
	},
	{
		"name":"cube_9",
		"translation":[0.4633222222328186,
		-1.184621810913086,
		0.6217370629310608],
		"rotation":[0.17032521963119508,
		0.0,
		0.0,
		-0.985387921333313],
		"scale":[1.0,
		1.0,
		1.0],
		"mesh":9
	},
	{
		"name":"cube_10",
		"translation":[0.4633222222328186,
		-1.184621810913086,
		0.6217370629310608],
		"rotation":[0.17032521963119508,
		0.0,
		0.0,
		-0.985387921333313],
		"scale":[1.0,
		1.0,
		1.0],
		"mesh":10
	},
	{
		"name":"cube_11",
		"translation":[0.4633222222328186,
		-1.184621810913086,
		0.6217370629310608],
		"rotation":[0.17032521963119508,
		0.0,
		0.0,
		-0.985387921333313],
		"scale":[1.0,
		1.0,
		1.0],
		"mesh":11
	},
	{
		"name":"cube_12",
		"translation":[0.4633222222328186,
		-1.184621810913086,
		0.6217370629310608],
		"rotation":[0.17032521963119508,
		0.0,
		0.0,
		-0.985387921333313],
		"scale":[1.0,
		1.0,
		1.0],
		"mesh":12
	}],
	"meshes":[{
		"primitives":[{
			"attributes":{
				"POSITION":1,
				"NORMAL":2,
				"TEXCOORD_0":3
			},
			"indices":0,
			"material":0
		}]
	},
	{
		"primitives":[{
			"attributes":{
				"POSITION":5,
				"NORMAL":6,
				"TEXCOORD_0":7
			},
			"indices":4,
			"material":1
		}]
	},
	{
		"primitives":[{
			"attributes":{
				"POSITION":9,
				"NORMAL":10,
				"TEXCOORD_0":11
			},
			"indices":8,
			"material":2
		}]
	},
	{
		"primitives":[{
			"attributes":{
				"POSITION":13,
				"NORMAL":14,
				"TEXCOORD_0":15
			},
			"indices":12,
			"material":3
		}]
	},
	{
		"primitives":[{
			"attributes":{
				"POSITION":17,
				"NORMAL":18,
				"TEXCOORD_0":19
			},
			"indices":16,
			"material":4
		}]
	},
	{
		"primitives":[{
			"attributes":{
				"POSITION":21,
				"NORMAL":22,
				"TEXCOORD_0":23
			},
			"indices":20,
			"material":0
		}]
	},
	{
		"primitives":[{
			"attributes":{
				"POSITION":25,
				"NORMAL":26,
				"TEXCOORD_0":27
			},
			"indices":24,
			"material":5
		}]
	},
	{
		"primitives":[{
			"attributes":{
				"POSITION":29,
				"NORMAL":30,
				"TEXCOORD_0":31
			},
			"indices":28,
			"material":6
		}]
	},
	{
		"primitives":[{
			"attributes":{
				"POSITION":33,
				"NORMAL":34,
				"TEXCOORD_0":35
			},
			"indices":32,
			"material":0
		}]
	},
	{
		"primitives":[{
			"attributes":{
				"POSITION":37,
				"NORMAL":38,
				"TEXCOORD_0":39
			},
			"indices":36,
			"material":0
		}]
	},
	{
		"primitives":[{
			"attributes":{
				"POSITION":41,
				"NORMAL":42,
				"TEXCOORD_0":43
			},
			"indices":40,
			"material":7
		}]
	},
	{
		"primitives":[{
			"attributes":{
				"POSITION":45,
				"NORMAL":46,
				"TEXCOORD_0":47
			},
			"indices":44,
			"material":8
		}]
	},
	{
		"primitives":[{
			"attributes":{
				"POSITION":49,
				"NORMAL":50,
				"TEXCOORD_0":51
			},
			"indices":48,
			"material":0
		}]
	}],
	"accessors":[{
		"bufferView":0,
		"type":"SCALAR",
		"componentType":5123,
		"count":36,
		"byteOffset":0,
		"min":[0],
		"max":[23]
	},
	{
		"bufferView":1,
		"type":"VEC3",
		"componentType":5126,
		"count":24,
		"byteOffset":0,
		"min":[-0.6490625143051148,
		0.932475745677948,
		-0.5404844880104065],
		"max":[-0.2721875011920929,
		1.1261762380599976,
		-0.16613134741783143]
	},
	{
		"bufferView":1,
		"type":"VEC3",
		"componentType":5126,
		"count":24,
		"byteOffset":12,
		"min":[-1.0,
		-0.9335625171661377,
		-0.9335625171661377],
		"max":[1.0,
		0.9335625171661377,
		0.9335625171661377]
	},
	{
		"bufferView":1,
		"type":"VEC2",
		"componentType":5126,
		"count":24,
		"byteOffset":24,
		"min":[0.0,
		0.0],
		"max":[0.375,
		0.375]
	},
	{
		"bufferView":2,
		"type":"SCALAR",
		"componentType":5123,
		"count":36,
		"byteOffset":0,
		"min":[0],
		"max":[23]
	},
	{
		"bufferView":3,
		"type":"VEC3",
		"componentType":5126,
		"count":24,
		"byteOffset":0,
		"min":[-0.33500000834465029,
		0.8963451981544495,
		-0.5629944205284119],
		"max":[-0.2721875011920929,
		1.067535638809204,
		-0.24728186428546906]
	},
	{
		"bufferView":3,
		"type":"VEC3",
		"componentType":5126,
		"count":24,
		"byteOffset":12,
		"min":[-1.0,
		-0.9335625171661377,
		-0.9335625171661377],
		"max":[1.0,
		0.9335625171661377,
		0.9335625171661377]
	},
	{
		"bufferView":3,
		"type":"VEC2",
		"componentType":5126,
		"count":24,
		"byteOffset":24,
		"min":[0.0,
		0.0],
		"max":[0.0625,
		0.3125]
	},
	{
		"bufferView":4,
		"type":"SCALAR",
		"componentType":5123,
		"count":36,
		"byteOffset":0,
		"min":[0],
		"max":[23]
	},
	{
		"bufferView":5,
		"type":"VEC3",
		"componentType":5126,
		"count":24,
		"byteOffset":0,
		"min":[-0.4606249928474426,
		0.8963451981544495,
		-0.5629944205284119],
		"max":[-0.39781248569488528,
		1.067535638809204,
		-0.24728186428546906]
	},
	{
		"bufferView":5,
		"type":"VEC3",
		"componentType":5126,
		"count":24,
		"byteOffset":12,
		"min":[-1.0,
		-0.9335625171661377,
		-0.9335625171661377],
		"max":[1.0,
		0.9335625171661377,
		0.9335625171661377]
	},
	{
		"bufferView":5,
		"type":"VEC2",
		"componentType":5126,
		"count":24,
		"byteOffset":24,
		"min":[0.0,
		0.0],
		"max":[0.0625,
		0.3125]
	},
	{
		"bufferView":6,
		"type":"SCALAR",
		"componentType":5123,
		"count":36,
		"byteOffset":0,
		"min":[0],
		"max":[23]
	},
	{
		"bufferView":7,
		"type":"VEC3",
		"componentType":5126,
		"count":24,
		"byteOffset":0,
		"min":[-0.5862500071525574,
		0.9188551902770996,
		-0.5629944205284119],
		"max":[-0.5234375,
		1.067535638809204,
		-0.30592238903045657]
	},
	{
		"bufferView":7,
		"type":"VEC3",
		"componentType":5126,
		"count":24,
		"byteOffset":12,
		"min":[-1.0,
		-0.9335625171661377,
		-0.9335625171661377],
		"max":[1.0,
		0.9335625171661377,
		0.9335625171661377]
	},
	{
		"bufferView":7,
		"type":"VEC2",
		"componentType":5126,
		"count":24,
		"byteOffset":24,
		"min":[0.0,
		0.0],
		"max":[0.0625,
		0.25]
	},
	{
		"bufferView":8,
		"type":"SCALAR",
		"componentType":5123,
		"count":36,
		"byteOffset":0,
		"min":[0],
		"max":[23]
	},
	{
		"bufferView":9,
		"type":"VEC3",
		"componentType":5126,
		"count":24,
		"byteOffset":0,
		"min":[-0.7118750214576721,
		0.9413651823997498,
		-0.5629944205284119],
		"max":[-0.6490625143051148,
		1.067535638809204,
		-0.36456289887428286]
	},
	{
		"bufferView":9,
		"type":"VEC3",
		"componentType":5126,
		"count":24,
		"byteOffset":12,
		"min":[-1.0,
		-0.9335625171661377,
		-0.9335625171661377],
		"max":[1.0,
		0.9335625171661377,
		0.9335625171661377]
	},
	{
		"bufferView":9,
		"type":"VEC2",
		"componentType":5126,
		"count":24,
		"byteOffset":24,
		"min":[0.0,
		0.0],
		"max":[0.0625,
		0.1875]
	},
	{
		"bufferView":10,
		"type":"SCALAR",
		"componentType":5123,
		"count":36,
		"byteOffset":0,
		"min":[0],
		"max":[23]
	},
	{
		"bufferView":11,
		"type":"VEC3",
		"componentType":5126,
		"count":24,
		"byteOffset":0,
		"min":[-0.6490625143051148,
		0.9911162853240967,
		-0.5179744958877564],
		"max":[-0.5862500071525574,
		1.6539409160614014,
		0.03645852953195572]
	},
	{
		"bufferView":11,
		"type":"VEC3",
		"componentType":5126,
		"count":24,
		"byteOffset":12,
		"min":[-1.0,
		-0.9335625171661377,
		-0.9335625171661377],
		"max":[1.0,
		0.9335625171661377,
		0.9335625171661377]
	},
	{
		"bufferView":11,
		"type":"VEC2",
		"componentType":5126,
		"count":24,
		"byteOffset":24,
		"min":[0.0,
		0.0],
		"max":[0.375,
		0.375]
	},
	{
		"bufferView":12,
		"type":"SCALAR",
		"componentType":5123,
		"count":36,
		"byteOffset":0,
		"min":[0],
		"max":[23]
	},
	{
		"bufferView":13,
		"type":"VEC3",
		"componentType":5126,
		"count":24,
		"byteOffset":0,
		"min":[-0.5862500071525574,
		1.1036661863327027,
		-0.5179744958877564],
		"max":[-0.33500000834465029,
		1.3607382774353028,
		-0.36929401755332949]
	},
	{
		"bufferView":13,
		"type":"VEC3",
		"componentType":5126,
		"count":24,
		"byteOffset":12,
		"min":[-1.0,
		-0.9335625171661377,
		-0.9335625171661377],
		"max":[1.0,
		0.9335625171661377,
		0.9335625171661377]
	},
	{
		"bufferView":13,
		"type":"VEC2",
		"componentType":5126,
		"count":24,
		"byteOffset":24,
		"min":[0.0,
		0.0],
		"max":[0.25,
		0.25]
	},
	{
		"bufferView":14,
		"type":"SCALAR",
		"componentType":5123,
		"count":36,
		"byteOffset":0,
		"min":[0],
		"max":[23]
	},
	{
		"bufferView":15,
		"type":"VEC3",
		"componentType":5126,
		"count":24,
		"byteOffset":0,
		"min":[-0.5862500071525574,
		0.9911162853240967,
		-0.2247718721628189],
		"max":[-0.33500000834465029,
		1.5413908958435059,
		0.03645852953195572]
	},
	{
		"bufferView":15,
		"type":"VEC3",
		"componentType":5126,
		"count":24,
		"byteOffset":12,
		"min":[-1.0,
		-0.9335625171661377,
		-0.9335625171661377],
		"max":[1.0,
		0.9335625171661377,
		0.9335625171661377]
	},
	{
		"bufferView":15,
		"type":"VEC2",
		"componentType":5126,
		"count":24,
		"byteOffset":24,
		"min":[0.0,
		0.0],
		"max":[0.375,
		0.25]
	},
	{
		"bufferView":16,
		"type":"SCALAR",
		"componentType":5123,
		"count":36,
		"byteOffset":0,
		"min":[0],
		"max":[23]
	},
	{
		"bufferView":17,
		"type":"VEC3",
		"componentType":5126,
		"count":24,
		"byteOffset":0,
		"min":[-0.5862500071525574,
		1.3382282257080079,
		-0.42793452739715578],
		"max":[-0.33500000834465029,
		1.6539409160614014,
		-0.2567440867424011]
	},
	{
		"bufferView":17,
		"type":"VEC3",
		"componentType":5126,
		"count":24,
		"byteOffset":12,
		"min":[-1.0,
		-0.9335625171661377,
		-0.9335625171661377],
		"max":[1.0,
		0.9335625171661377,
		0.9335625171661377]
	},
	{
		"bufferView":17,
		"type":"VEC2",
		"componentType":5126,
		"count":24,
		"byteOffset":24,
		"min":[0.0,
		0.0],
		"max":[0.25,
		0.25]
	},
	{
		"bufferView":18,
		"type":"SCALAR",
		"componentType":5123,
		"count":36,
		"byteOffset":0,
		"min":[0],
		"max":[23]
	},
	{
		"bufferView":19,
		"type":"VEC3",
		"componentType":5126,
		"count":24,
		"byteOffset":0,
		"min":[-0.33500000834465029,
		0.9911162853240967,
		-0.5179744958877564],
		"max":[-0.2721875011920929,
		1.6539409160614014,
		0.03645852953195572]
	},
	{
		"bufferView":19,
		"type":"VEC3",
		"componentType":5126,
		"count":24,
		"byteOffset":12,
		"min":[-1.0,
		-0.9335625171661377,
		-0.9335625171661377],
		"max":[1.0,
		0.9335625171661377,
		0.9335625171661377]
	},
	{
		"bufferView":19,
		"type":"VEC2",
		"componentType":5126,
		"count":24,
		"byteOffset":24,
		"min":[0.0,
		0.0],
		"max":[0.375,
		0.375]
	},
	{
		"bufferView":20,
		"type":"SCALAR",
		"componentType":5123,
		"count":36,
		"byteOffset":0,
		"min":[0],
		"max":[23]
	},
	{
		"bufferView":21,
		"type":"VEC3",
		"componentType":5126,
		"count":24,
		"byteOffset":0,
		"min":[-0.2721875011920929,
		1.036136269569397,
		-0.3420529067516327],
		"max":[-0.20937499403953553,
		1.351848840713501,
		-0.17086245119571687]
	},
	{
		"bufferView":21,
		"type":"VEC3",
		"componentType":5126,
		"count":24,
		"byteOffset":12,
		"min":[-1.0,
		-0.9335625171661377,
		-0.9335625171661377],
		"max":[1.0,
		0.9335625171661377,
		0.9335625171661377]
	},
	{
		"bufferView":21,
		"type":"VEC2",
		"componentType":5126,
		"count":24,
		"byteOffset":24,
		"min":[0.0,
		0.0],
		"max":[0.3125,
		0.0625]
	},
	{
		"bufferView":22,
		"type":"SCALAR",
		"componentType":5123,
		"count":36,
		"byteOffset":0,
		"min":[0],
		"max":[23]
	},
	{
		"bufferView":23,
		"type":"VEC3",
		"componentType":5126,
		"count":24,
		"byteOffset":0,
		"min":[-0.2721875011920929,
		0.9549857378005981,
		-0.30592238903045657],
		"max":[-0.20937499403953553,
		1.2120578289031983,
		-0.15724191069602967]
	},
	{
		"bufferView":23,
		"type":"VEC3",
		"componentType":5126,
		"count":24,
		"byteOffset":12,
		"min":[-1.0,
		-0.9335625171661377,
		-0.9335625171661377],
		"max":[1.0,
		0.9335625171661377,
		0.9335625171661377]
	},
	{
		"bufferView":23,
		"type":"VEC2",
		"componentType":5126,
		"count":24,
		"byteOffset":24,
		"min":[0.0,
		0.0],
		"max":[0.25,
		0.0625]
	},
	{
		"bufferView":24,
		"type":"SCALAR",
		"componentType":5123,
		"count":36,
		"byteOffset":0,
		"min":[0],
		"max":[23]
	},
	{
		"bufferView":25,
		"type":"VEC3",
		"componentType":5126,
		"count":24,
		"byteOffset":0,
		"min":[-0.7118750214576721,
		1.0000057220458985,
		-0.5404844880104065],
		"max":[-0.6490625143051148,
		1.4780193567276,
		-0.2069929987192154]
	},
	{
		"bufferView":25,
		"type":"VEC3",
		"componentType":5126,
		"count":24,
		"byteOffset":12,
		"min":[-1.0,
		-0.9335625171661377,
		-0.9335625171661377],
		"max":[1.0,
		0.9335625171661377,
		0.9335625171661377]
	},
	{
		"bufferView":25,
		"type":"VEC2",
		"componentType":5126,
		"count":24,
		"byteOffset":24,
		"min":[0.0,
		0.0],
		"max":[0.0625,
		0.1875]
	}],
	"bufferViews":[{
		"buffer":0,
		"byteOffset":0,
		"byteLength":72,
		"target":34963
	},
	{
		"buffer":0,
		"byteOffset":72,
		"byteLength":768,
		"target":34962,
		"byteStride":32
	},
	{
		"buffer":1,
		"byteOffset":0,
		"byteLength":72,
		"target":34963
	},
	{
		"buffer":1,
		"byteOffset":72,
		"byteLength":768,
		"target":34962,
		"byteStride":32
	},
	{
		"buffer":2,
		"byteOffset":0,
		"byteLength":72,
		"target":34963
	},
	{
		"buffer":2,
		"byteOffset":72,
		"byteLength":768,
		"target":34962,
		"byteStride":32
	},
	{
		"buffer":3,
		"byteOffset":0,
		"byteLength":72,
		"target":34963
	},
	{
		"buffer":3,
		"byteOffset":72,
		"byteLength":768,
		"target":34962,
		"byteStride":32
	},
	{
		"buffer":4,
		"byteOffset":0,
		"byteLength":72,
		"target":34963
	},
	{
		"buffer":4,
		"byteOffset":72,
		"byteLength":768,
		"target":34962,
		"byteStride":32
	},
	{
		"buffer":5,
		"byteOffset":0,
		"byteLength":72,
		"target":34963
	},
	{
		"buffer":5,
		"byteOffset":72,
		"byteLength":768,
		"target":34962,
		"byteStride":32
	},
	{
		"buffer":6,
		"byteOffset":0,
		"byteLength":72,
		"target":34963
	},
	{
		"buffer":6,
		"byteOffset":72,
		"byteLength":768,
		"target":34962,
		"byteStride":32
	},
	{
		"buffer":7,
		"byteOffset":0,
		"byteLength":72,
		"target":34963
	},
	{
		"buffer":7,
		"byteOffset":72,
		"byteLength":768,
		"target":34962,
		"byteStride":32
	},
	{
		"buffer":8,
		"byteOffset":0,
		"byteLength":72,
		"target":34963
	},
	{
		"buffer":8,
		"byteOffset":72,
		"byteLength":768,
		"target":34962,
		"byteStride":32
	},
	{
		"buffer":9,
		"byteOffset":0,
		"byteLength":72,
		"target":34963
	},
	{
		"buffer":9,
		"byteOffset":72,
		"byteLength":768,
		"target":34962,
		"byteStride":32
	},
	{
		"buffer":10,
		"byteOffset":0,
		"byteLength":72,
		"target":34963
	},
	{
		"buffer":10,
		"byteOffset":72,
		"byteLength":768,
		"target":34962,
		"byteStride":32
	},
	{
		"buffer":11,
		"byteOffset":0,
		"byteLength":72,
		"target":34963
	},
	{
		"buffer":11,
		"byteOffset":72,
		"byteLength":768,
		"target":34962,
		"byteStride":32
	},
	{
		"buffer":12,
		"byteOffset":0,
		"byteLength":72,
		"target":34963
	},
	{
		"buffer":12,
		"byteOffset":72,
		"byteLength":768,
		"target":34962,
		"byteStride":32
	}],
	"buffers":[{
		"uri":"data:application/octet-stream;base64,",
		"byteLength":840
	},
	{
		"uri":"data:application/octet-stream;base64,",
		"byteLength":840
	},
	{
		"uri":"data:application/octet-stream;base64,",
		"byteLength":840
	},
	{
		"uri":"data:application/octet-stream;base64,",
		"byteLength":840
	},
	{
		"uri":"data:application/octet-stream;base64,",
		"byteLength":840
	},
	{
		"uri":"data:application/octet-stream;base64,",
		"byteLength":840
	},
	{
		"uri":"data:application/octet-stream;base64,",
		"byteLength":840
	},
	{
		"uri":"data:application/octet-stream;base64,",
		"byteLength":840
	},
	{
		"uri":"data:application/octet-stream;base64,",
		"byteLength":840
	},
	{
		"uri":"data:application/octet-stream;base64,",
		"byteLength":840
	},
	{
		"uri":"data:application/octet-stream;base64,",
		"byteLength":840
	},
	{
		"uri":"data:application/octet-stream;base64,",
		"byteLength":840
	},
	{
		"uri":"data:application/octet-stream;base64,",
		"byteLength":840
	}],
	"materials":[{
		"pbrMetallicRoughness":{
			"baseColorFactor":[0.65,
			0.46951666666666666,
			0.3315,
			1.0],
			"metallicFactor":0.0,
			"roughnessFactor":0.5
		},
		"emissiveFactor":[0.0,
		0.0,
		0.0],
		"alphaMode":"OPAQUE",
		"doubleSided":false,
		"name":"Mat_23"
	},
	{
		"pbrMetallicRoughness":{
			"baseColorFactor":[0.5313200000000007,
			0.04439999999999995,
			0.74,
			1.0],
			"metallicFactor":0.0,
			"roughnessFactor":0.5
		},
		"emissiveFactor":[0.0,
		0.0,
		0.0],
		"alphaMode":"OPAQUE",
		"doubleSided":false,
		"name":"Mat_29"
	},
	{
		"pbrMetallicRoughness":{
			"baseColorFactor":[0.04439999999999995,
			0.11395999999999969,
			0.74,
			1.0],
			"metallicFactor":0.0,
			"roughnessFactor":0.5
		},
		"emissiveFactor":[0.0,
		0.0,
		0.0],
		"alphaMode":"OPAQUE",
		"doubleSided":false,
		"name":"Mat_22"
	},
	{
		"pbrMetallicRoughness":{
			"baseColorFactor":[0.81,
			0.0,
			0.0,
			1.0],
			"metallicFactor":0.0,
			"roughnessFactor":0.5
		},
		"emissiveFactor":[0.0,
		0.0,
		0.0],
		"alphaMode":"OPAQUE",
		"doubleSided":false,
		"name":"Mat_30"
	},
	{
		"pbrMetallicRoughness":{
			"baseColorFactor":[0.88,
			0.6403466666666667,
			0.12320000000000002,
			1.0],
			"metallicFactor":0.0,
			"roughnessFactor":0.5
		},
		"emissiveFactor":[0.0,
		0.0,
		0.0],
		"alphaMode":"OPAQUE",
		"doubleSided":false,
		"name":"Mat_31"
	},
	{
		"pbrMetallicRoughness":{
			"baseColorFactor":[0.81,
			0.7830000000000001,
			0.0,
			1.0],
			"metallicFactor":0.0,
			"roughnessFactor":0.5
		},
		"emissiveFactor":[0.0,
		0.0,
		0.0],
		"alphaMode":"OPAQUE",
		"doubleSided":false,
		"name":"Mat_18"
	},
	{
		"pbrMetallicRoughness":{
			"baseColorFactor":[1.0,
			1.0,
			1.0,
			1.0],
			"metallicFactor":1.0,
			"roughnessFactor":1.0
		},
		"emissiveFactor":[0.0,
		0.0,
		0.0],
		"alphaMode":"OPAQUE",
		"doubleSided":false,
		"name":""
	},
	{
		"pbrMetallicRoughness":{
			"baseColorFactor":[0.41000000000000005,
			0.2961566666666667,
			0.2091,
			1.0],
			"metallicFactor":0.0,
			"roughnessFactor":0.5
		},
		"emissiveFactor":[0.0,
		0.0,
		0.0],
		"alphaMode":"OPAQUE",
		"doubleSided":false,
		"name":"Mat_27"
	},
	{
		"pbrMetallicRoughness":{
			"baseColorFactor":[0.2448,
			0.48,
			0.2448,
			1.0],
			"metallicFactor":0.0,
			"roughnessFactor":0.5
		},
		"emissiveFactor":[0.0,
		0.0,
		0.0],
		"alphaMode":"OPAQUE",
		"doubleSided":false,
		"name":"Mat_19"
	}]
}