{
	"asset":{
		"version":"2.0",
		"generator":"Created using the official Cinema 4D glTF Exporter 1.000x290161"
	},
	"scenes":[{
		"nodes":[0]
	}],
	"nodes":[{
		"name":"samas",
		"translation":[0.0,
		267.295654296875,
		0.0],
		"rotation":[0.0,
		0.0,
		0.0,
		-1.0],
		"scale":[1.0,
		1.0,
		1.0],
		"children":[1]
	},
	{
		"name":"DiamondSword",
		"translation":[-0.44946590065956118,
		-0.10720590502023697,
		-0.41502517461776736],
		"rotation":[0.488296240568161,
		0.48398149013519289,
		-0.5305620431900024,
		0.49581509828567507],
		"scale":[1.0,
		1.0,
		1.0],
		"mesh":0
	}],
	"meshes":[{
		"primitives":[{
			"attributes":{
				"POSITION":1,
				"NORMAL":2,
				"TEXCOORD_0":3
			},
			"indices":0,
			"material":0
		}]
	}],
	"accessors":[{
		"bufferView":0,
		"type":"SCALAR",
		"componentType":5123,
		"count":3024,
		"byteOffset":0,
		"min":[0],
		"max":[2015]
	},
	{
		"bufferView":1,
		"type":"VEC3",
		"componentType":5126,
		"count":2016,
		"byteOffset":0,
		"min":[-0.4848971664905548,
		-0.04824179410934448,
		-0.8769230842590332],
		"max":[0.5370678305625916,
		0.04824179410934448,
		0.8769230842590332]
	},
	{
		"bufferView":1,
		"type":"VEC3",
		"componentType":5126,
		"count":2016,
		"byteOffset":12,
		"min":[-0.9347451329231262,
		-0.9993700385093689,
		-0.9342807531356812],
		"max":[0.9347451329231262,
		0.9993700385093689,
		0.9342807531356812]
	},
	{
		"bufferView":1,
		"type":"VEC2",
		"componentType":5126,
		"count":2016,
		"byteOffset":24,
		"min":[0.0,
		0.0],
		"max":[1.0,
		1.0]
	}],
	"bufferViews":[{
		"buffer":0,
		"byteOffset":0,
		"byteLength":6048,
		"target":34963
	},
	{
		"buffer":0,
		"byteOffset":6048,
		"byteLength":64512,
		"target":34962,
		"byteStride":32
	}],
	"buffers":[{
		"uri":"data:application/octet-stream;base64,",
		"byteLength":70560
	}],
	"materials":[{
		"pbrMetallicRoughness":{
			"baseColorFactor":[0.2397,
			0.45143500000000005,
			0.51,
			1.0],
			"metallicFactor":0.0,
			"roughnessFactor":0.5
		},
		"emissiveFactor":[0.0,
		0.0,
		0.0],
		"alphaMode":"OPAQUE",
		"doubleSided":false,
		"name":"Mat"
	}]
}